<svg id="app" xmlns="http://www.w3.org/2000/svg" width="73.634" height="83.779" viewBox="0 0 73.634 83.779">
  <path id="Path_866" data-name="Path 866" d="M45,0H9A9.01,9.01,0,0,0,0,9v65.78a9.01,9.01,0,0,0,9,9H46.811v-.818a1.638,1.638,0,0,1-1.636-1.636V78.694a3.271,3.271,0,0,0-4.909-2.834c-1.716.991-3.5,2.47-4.515.717l-4.909-8.5a1.623,1.623,0,0,1-.141-1.312c.245-.784.658-.876,3.019-2.238a3.272,3.272,0,0,0,0-5.668l-2.279-1.315a1.638,1.638,0,0,1-.6-2.235l4.909-8.5a1.646,1.646,0,0,1,1.421-.818c.562,0,.636.116,3.094,1.535a3.271,3.271,0,0,0,4.909-2.834V42.053a1.638,1.638,0,0,1,1.636-1.636H54V9a9.01,9.01,0,0,0-9-9Zm0,0" fill="#d6f3fe"/>
  <path id="Path_867" data-name="Path 867" d="M183,0H165V83.779h19.812v-.818a1.638,1.638,0,0,1-1.636-1.636V78.694a3.271,3.271,0,0,0-4.909-2.834c-1.716.991-3.5,2.47-4.515.717l-4.909-8.5a1.623,1.623,0,0,1-.141-1.312c.245-.784.658-.876,3.019-2.238a3.272,3.272,0,0,0,0-5.668l-2.279-1.315a1.638,1.638,0,0,1-.6-2.235l4.909-8.5a1.646,1.646,0,0,1,1.421-.818c.562,0,.636.116,3.094,1.535a3.271,3.271,0,0,0,4.909-2.834V42.053a1.638,1.638,0,0,1,1.636-1.636H192V9a9.01,9.01,0,0,0-9-9Zm0,0" transform="translate(-138.001)" fill="#bdecfc"/>
  <path id="Path_868" data-name="Path 868" d="M54,9V40.417H48.762V17.181H5.236v49.58H30.7a1.632,1.632,0,0,0,.141,1.312c5.256,9.1,4.972,8.746,5.42,9.046,1.186.79,2.065-.233,3.97-1.241h0a3.26,3.26,0,0,1,4.94,2.816v2.631A1.638,1.638,0,0,0,46.8,82.961v.818H9a9.01,9.01,0,0,1-9-9V9A9.01,9.01,0,0,1,9,0H45a9.01,9.01,0,0,1,9,9Zm0,0" transform="translate(0)" fill="#b6d2e0"/>
  <path id="Path_869" data-name="Path 869" d="M184.8,424.2v.818H165V408h3.7a1.632,1.632,0,0,0,.141,1.312c5.256,9.1,4.972,8.746,5.42,9.046,1.186.79,2.065-.233,3.97-1.241h0a3.26,3.26,0,0,1,4.94,2.816v2.631A1.638,1.638,0,0,0,184.8,424.2Zm0,0" transform="translate(-138.001 -341.239)" fill="#aac3ce"/>
  <path id="Path_870" data-name="Path 870" d="M192,9V40.417h-5.236V17.181H165V0h18A9.01,9.01,0,0,1,192,9Zm0,0" transform="translate(-138.001)" fill="#aac3ce"/>
  <path id="Path_871" data-name="Path 871" d="M72.272,165.727H62.454A2.454,2.454,0,0,1,60,163.272v-9.818A2.454,2.454,0,0,1,62.454,151h9.818a2.454,2.454,0,0,1,2.454,2.454v9.818A2.454,2.454,0,0,1,72.272,165.727Zm0,0" transform="translate(-50.182 -126.292)" fill="#dd5c60"/>
  <path id="Path_872" data-name="Path 872" d="M72.272,285.727H62.454A2.454,2.454,0,0,1,60,283.272v-9.818A2.454,2.454,0,0,1,62.454,271h9.818a2.454,2.454,0,0,1,2.454,2.454v9.818A2.454,2.454,0,0,1,72.272,285.727Zm0,0" transform="translate(-50.182 -226.656)" fill="#7edc87"/>
  <path id="Path_873" data-name="Path 873" d="M192.272,165.727h-9.818A2.454,2.454,0,0,1,180,163.272v-9.818A2.454,2.454,0,0,1,182.454,151h9.818a2.454,2.454,0,0,1,2.454,2.454v9.818A2.454,2.454,0,0,1,192.272,165.727Zm0,0" transform="translate(-150.546 -126.292)" fill="#e79b34"/>
  <path id="Path_874" data-name="Path 874" d="M208.974,286.18h-9.818a2.454,2.454,0,0,1-2.454-2.454V281.1a2.454,2.454,0,0,0-3.682-2.125l-2.279,1.315a2.454,2.454,0,0,1-3.353-.9l-4.909-8.5a2.454,2.454,0,0,1,.9-3.353l2.279-1.315a2.454,2.454,0,0,0,0-4.251l-2.279-1.315a2.455,2.455,0,0,1-.9-3.353l4.909-8.5a2.454,2.454,0,0,1,3.353-.9l2.279,1.315a2.454,2.454,0,0,0,3.682-2.126v-2.631A2.454,2.454,0,0,1,199.156,242h9.818a2.455,2.455,0,0,1,2.454,2.454v2.631a2.454,2.454,0,0,0,3.682,2.125l2.278-1.315a2.454,2.454,0,0,1,3.353.9l4.909,8.5a2.453,2.453,0,0,1-.9,3.353l-2.278,1.315a2.454,2.454,0,0,0,0,4.251l2.278,1.315a2.454,2.454,0,0,1,.9,3.353l-4.909,8.5a2.454,2.454,0,0,1-3.353.9l-2.278-1.315a2.454,2.454,0,0,0-3.682,2.126v2.631A2.455,2.455,0,0,1,208.974,286.18Zm0,0" transform="translate(-152.345 -202.401)" fill="#7280f8"/>
  <path id="Path_875" data-name="Path 875" d="M336.765,267.531l-2.278-1.316a2.453,2.453,0,0,1,0-4.251l2.278-1.316a2.455,2.455,0,0,0,.9-3.353l-4.909-8.5a2.453,2.453,0,0,0-3.353-.9l-2.278,1.315a2.454,2.454,0,0,1-3.682-2.126v-2.631A2.455,2.455,0,0,0,320.987,242h-4.909v44.18h4.909a2.455,2.455,0,0,0,2.454-2.454v-2.631a2.454,2.454,0,0,1,3.682-2.126l2.278,1.315a2.455,2.455,0,0,0,3.353-.9l4.909-8.5A2.455,2.455,0,0,0,336.765,267.531Zm0,0" transform="translate(-264.358 -202.401)" fill="#434af2"/>
  <path id="Path_876" data-name="Path 876" d="M278.441,346.727a7.363,7.363,0,1,1,7.363-7.363A7.372,7.372,0,0,1,278.441,346.727Zm0,0" transform="translate(-226.721 -277.675)" fill="#d6f3fe"/>
  <path id="Path_877" data-name="Path 877" d="M316.078,332v14.727a7.363,7.363,0,0,0,0-14.727Zm0,0" transform="translate(-264.358 -277.675)" fill="#bdecfc"/>
</svg>
