<svg xmlns="http://www.w3.org/2000/svg" width="69.728" height="70.067" viewBox="0 0 69.728 70.067">
  <g id="branding" transform="translate(-8.25 -7.667)">
    <g id="Group_279" data-name="Group 279" transform="translate(12.18 8.577)">
      <g id="Group_278" data-name="Group 278" transform="translate(0 0)">
        <path id="Path_1031" data-name="Path 1031" d="M24.079,14.286H21.75V11.957a1.165,1.165,0,0,1,1.165-1.165h0a1.165,1.165,0,0,1,1.165,1.165Z" transform="translate(-21.75 -10.792)" fill="#ffc34c"/>
      </g>
    </g>
    <g id="Group_281" data-name="Group 281" transform="translate(12.18 8.577)">
      <g id="Group_280" data-name="Group 280" transform="translate(0 0)">
        <path id="Path_1032" data-name="Path 1032" d="M23.788,11.193a1.16,1.16,0,0,0-2.038.763v2.329H23.5V11.956A1.154,1.154,0,0,1,23.788,11.193Z" transform="translate(-21.75 -10.791)" fill="#ffb74b"/>
      </g>
    </g>
    <g id="Group_283" data-name="Group 283" transform="translate(11.307 11.525)">
      <g id="Group_282" data-name="Group 282">
        <path id="Path_1033" data-name="Path 1033" d="M22.826,52.942H18.75V21.5a.582.582,0,0,1,.582-.582h2.911a.582.582,0,0,1,.582.582Z" transform="translate(-18.75 -20.917)" fill="#f28b31"/>
      </g>
    </g>
    <g id="Group_285" data-name="Group 285" transform="translate(11.486 43.55)">
      <g id="Group_284" data-name="Group 284" transform="translate(0)">
        <path id="Path_1034" data-name="Path 1034" d="M19.658,130.917h3.134a.291.291,0,0,1,.26.421l-1.567,3.134a.291.291,0,0,1-.521,0L19.4,131.338A.291.291,0,0,1,19.658,130.917Z" transform="translate(-19.366 -130.917)" fill="#fff4c1"/>
      </g>
    </g>
    <g id="Group_287" data-name="Group 287" transform="translate(11.307 11.525)">
      <g id="Group_286" data-name="Group 286" transform="translate(0 0)">
        <path id="Path_1035" data-name="Path 1035" d="M21.079,20.917H19.332a.582.582,0,0,0-.582.582V52.942H20.5V21.5A.582.582,0,0,1,21.079,20.917Z" transform="translate(-18.75 -20.917)" fill="#ffc34c"/>
      </g>
    </g>
    <g id="Group_289" data-name="Group 289" transform="translate(11.487 43.55)">
      <g id="Group_288" data-name="Group 288">
        <path id="Path_1036" data-name="Path 1036" d="M21.145,131.338a.291.291,0,0,1,.26-.421H19.658a.291.291,0,0,0-.26.421l1.567,3.134a.291.291,0,0,0,.521,0l.613-1.226Z" transform="translate(-19.367 -130.917)" fill="#fce575"/>
      </g>
    </g>
    <g id="Group_291" data-name="Group 291" transform="translate(19.459 12.362)">
      <g id="Group_290" data-name="Group 290">
        <path id="Path_1037" data-name="Path 1037" d="M46.75,23.792h4.076v34.1a1.165,1.165,0,0,1-1.165,1.165H47.915a1.165,1.165,0,0,1-1.165-1.165Z" transform="translate(-46.75 -23.792)" fill="#e37210"/>
      </g>
    </g>
    <g id="Group_293" data-name="Group 293" transform="translate(19.459 12.362)">
      <g id="Group_292" data-name="Group 292">
        <path id="Path_1038" data-name="Path 1038" d="M48.5,57.892v-34.1H46.75v34.1a1.165,1.165,0,0,0,1.165,1.165h1.747A1.165,1.165,0,0,1,48.5,57.892Z" transform="translate(-46.75 -23.792)" fill="#f28b31"/>
      </g>
    </g>
    <g id="Group_295" data-name="Group 295" transform="translate(26.834 7.813)">
      <g id="Group_294" data-name="Group 294" transform="translate(0 0)">
        <path id="Path_1039" data-name="Path 1039" d="M117.4,78.04H74.412a2.329,2.329,0,0,1-2.329-2.329V10.5a2.329,2.329,0,0,1,2.329-2.329H117.4a2.329,2.329,0,0,1,2.329,2.329V75.711A2.329,2.329,0,0,1,117.4,78.04Z" transform="translate(-72.083 -8.167)" fill="#dcf4ff"/>
      </g>
    </g>
    <g id="Group_297" data-name="Group 297" transform="translate(71.282 48.912)">
      <g id="Group_296" data-name="Group 296">
        <path id="Path_1040" data-name="Path 1040" d="M225.623,176.653a.873.873,0,0,1-.873-.873V150.207a.873.873,0,1,1,1.747,0v25.572A.874.874,0,0,1,225.623,176.653Z" transform="translate(-224.75 -149.334)" fill="#75d3fc"/>
      </g>
    </g>
    <g id="Group_299" data-name="Group 299" transform="translate(26.786 7.667)">
      <g id="Group_298" data-name="Group 298" transform="translate(0 0)">
        <path id="Path_1041" data-name="Path 1041" d="M119.664,13.49H71.917V10a2.329,2.329,0,0,1,2.329-2.329h43.089A2.329,2.329,0,0,1,119.664,10Z" transform="translate(-71.917 -7.667)" fill="#75d3fc"/>
      </g>
    </g>
    <g id="Group_301" data-name="Group 301" transform="translate(26.834 7.813)">
      <g id="Group_300" data-name="Group 300" transform="translate(0 0)">
        <path id="Path_1042" data-name="Path 1042" d="M80.235,75.711V10.5a2.329,2.329,0,0,1,2.329-2.329H74.412A2.329,2.329,0,0,0,72.083,10.5V75.711a2.329,2.329,0,0,0,2.329,2.329h8.152A2.329,2.329,0,0,1,80.235,75.711Z" transform="translate(-72.083 -8.167)" fill="#75d3fc"/>
      </g>
    </g>
    <g id="Group_303" data-name="Group 303" transform="translate(26.786 7.667)">
      <g id="Group_302" data-name="Group 302" transform="translate(0 0)">
        <path id="Path_1043" data-name="Path 1043" d="M82.4,7.667H74.246A2.329,2.329,0,0,0,71.917,10V13.49h8.152V10A2.329,2.329,0,0,1,82.4,7.667Z" transform="translate(-71.917 -7.667)" fill="#5ab9e2"/>
      </g>
    </g>
    <g id="Group_305" data-name="Group 305" transform="translate(8.25 49.785)">
      <g id="Group_304" data-name="Group 304">
        <path id="Path_1044" data-name="Path 1044" d="M59.491,180.282H9.415a1.165,1.165,0,0,1-1.165-1.165V153.5a1.165,1.165,0,0,1,1.165-1.165H59.491a1.165,1.165,0,0,1,1.165,1.165v25.62A1.165,1.165,0,0,1,59.491,180.282Z" transform="translate(-8.25 -152.333)" fill="#75d3fc"/>
      </g>
    </g>
    <g id="Group_307" data-name="Group 307" transform="translate(51.775 30.813)">
      <g id="Group_306" data-name="Group 306">
        <path id="Path_1045" data-name="Path 1045" d="M182.788,101.724H158.915a1.165,1.165,0,0,1-1.165-1.165V88.332a1.165,1.165,0,0,1,1.165-1.165h23.873a1.165,1.165,0,0,1,1.165,1.165v12.228A1.165,1.165,0,0,1,182.788,101.724Z" transform="translate(-157.75 -87.167)" fill="#c5eafb"/>
      </g>
    </g>
    <g id="Group_309" data-name="Group 309" transform="translate(9.56 15.079)">
      <g id="Group_308" data-name="Group 308">
        <path id="Path_1046" data-name="Path 1046" d="M18.573,36.036H12.75V33.68a.555.555,0,0,1,.555-.555h5.268Z" transform="translate(-12.75 -33.125)" fill="#ff624b"/>
      </g>
    </g>
    <g id="Group_311" data-name="Group 311" transform="translate(19.459 8.646)">
      <g id="Group_310" data-name="Group 310" transform="translate(0 0)">
        <path id="Path_1047" data-name="Path 1047" d="M50.826,14.744H46.75l1.778-3.555a.291.291,0,0,1,.521,0Z" transform="translate(-46.75 -11.028)" fill="#fff4c1"/>
      </g>
    </g>
    <g id="Group_313" data-name="Group 313" transform="translate(19.459 44.132)">
      <g id="Group_312" data-name="Group 312">
        <path id="Path_1048" data-name="Path 1048" d="M46.75,132.917h4.076v2.329a1.165,1.165,0,0,1-1.165,1.165H47.915a1.165,1.165,0,0,1-1.165-1.165Z" transform="translate(-46.75 -132.917)" fill="#ff624b"/>
      </g>
    </g>
    <g id="Group_315" data-name="Group 315" transform="translate(9.56 15.079)">
      <g id="Group_314" data-name="Group 314" transform="translate(0)">
        <path id="Path_1049" data-name="Path 1049" d="M13.382,48.759h-.247a.386.386,0,0,1-.386-.386V33.67a.545.545,0,0,1,.545-.545h.474V48.372A.386.386,0,0,1,13.382,48.759Z" transform="translate(-12.749 -33.125)" fill="#ff4b34"/>
      </g>
    </g>
    <g id="Group_317" data-name="Group 317" transform="translate(35.69 59.685)">
      <g id="Group_316" data-name="Group 316" transform="translate(0 0)">
        <path id="Path_1050" data-name="Path 1050" d="M121.715,195.073H103.665a1.165,1.165,0,0,1-1.165-1.165V187.5a1.165,1.165,0,0,1,1.165-1.165h18.051a1.165,1.165,0,0,1,1.165,1.165v6.405A1.164,1.164,0,0,1,121.715,195.073Z" transform="translate(-102.5 -186.339)" fill="#b2e8ff"/>
      </g>
    </g>
    <g id="Group_319" data-name="Group 319" transform="translate(54.687 33.362)">
      <g id="Group_318" data-name="Group 318" transform="translate(0 0)">
        <circle id="Ellipse_36" data-name="Ellipse 36" cx="4.367" cy="4.367" r="4.367" fill="#ccc033"/>
      </g>
    </g>
    <g id="Group_321" data-name="Group 321" transform="translate(65.459 35.109)">
      <g id="Group_320" data-name="Group 320">
        <path id="Path_1051" data-name="Path 1051" d="M214.5,103.088h-9.171a.582.582,0,0,1,0-1.165H214.5a.582.582,0,0,1,0,1.165Z" transform="translate(-204.75 -101.923)" fill="#5fc6f3"/>
      </g>
    </g>
    <g id="Group_323" data-name="Group 323" transform="translate(65.459 39.185)">
      <g id="Group_322" data-name="Group 322">
        <path id="Path_1052" data-name="Path 1052" d="M214.5,117.088h-9.171a.582.582,0,0,1,0-1.165H214.5a.582.582,0,0,1,0,1.165Z" transform="translate(-204.75 -115.923)" fill="#5fc6f3"/>
      </g>
    </g>
    <g id="Group_325" data-name="Group 325" transform="translate(30.231 15.893)">
      <g id="Group_324" data-name="Group 324">
        <circle id="Ellipse_37" data-name="Ellipse 37" cx="4.367" cy="4.367" r="4.367" fill="#b2e8ff"/>
      </g>
    </g>
    <g id="Group_327" data-name="Group 327" transform="translate(41.003 17.64)">
      <g id="Group_326" data-name="Group 326">
        <path id="Path_1053" data-name="Path 1053" d="M150.373,43.088H121.332a.582.582,0,0,1,0-1.165h29.041a.582.582,0,0,1,0,1.165Z" transform="translate(-120.75 -41.923)" fill="#5fc6f3"/>
      </g>
    </g>
    <g id="Group_329" data-name="Group 329" transform="translate(41.003 21.716)">
      <g id="Group_328" data-name="Group 328">
        <path id="Path_1054" data-name="Path 1054" d="M150.373,57.088H121.332a.582.582,0,0,1,0-1.165h29.041a.582.582,0,0,1,0,1.165Z" transform="translate(-120.75 -55.923)" fill="#5fc6f3"/>
      </g>
    </g>
    <g id="Group_331" data-name="Group 331" transform="translate(30.231 15.893)">
      <g id="Group_330" data-name="Group 330">
        <path id="Path_1055" data-name="Path 1055" d="M88.117,35.923a4.367,4.367,0,0,0,0,8.734c.131,0,.26-.008.388-.02V35.943C88.377,35.931,88.248,35.923,88.117,35.923Z" transform="translate(-83.75 -35.923)" fill="#b2e8ff"/>
      </g>
    </g>
    <g id="Group_333" data-name="Group 333" transform="translate(8.25 49.785)">
      <g id="Group_332" data-name="Group 332">
        <path id="Path_1056" data-name="Path 1056" d="M16.4,179.118V153.5a1.165,1.165,0,0,1,1.165-1.165H9.415A1.165,1.165,0,0,0,8.25,153.5v25.62a1.165,1.165,0,0,0,1.165,1.165h8.152A1.165,1.165,0,0,1,16.4,179.118Z" transform="translate(-8.25 -152.333)" fill="#5ab9e2"/>
      </g>
    </g>
    <g id="Group_335" data-name="Group 335" transform="translate(13.595 55.318)">
      <g id="Group_334" data-name="Group 334">
        <circle id="Ellipse_38" data-name="Ellipse 38" cx="8.734" cy="8.734" r="8.734" fill="#b2e8ff"/>
      </g>
    </g>
    <g id="Group_337" data-name="Group 337" transform="translate(13.595 57.64)">
      <g id="Group_336" data-name="Group 336">
        <path id="Path_1057" data-name="Path 1057" d="M26.609,185.725a8.709,8.709,0,0,0,2.807,6.413V179.312A8.709,8.709,0,0,0,26.609,185.725Z" transform="translate(-26.609 -179.312)" fill="#a5e4ff"/>
      </g>
    </g>
    <g id="Group_339" data-name="Group 339" transform="translate(51.775 30.813)">
      <g id="Group_338" data-name="Group 338">
        <path id="Path_1058" data-name="Path 1058" d="M165.9,100.559V88.332a1.165,1.165,0,0,1,1.165-1.165h-8.152a1.165,1.165,0,0,0-1.165,1.165v12.228a1.165,1.165,0,0,0,1.165,1.165h8.152A1.165,1.165,0,0,1,165.9,100.559Z" transform="translate(-157.75 -87.167)" fill="#5ab9e2"/>
      </g>
    </g>
    <g id="Group_341" data-name="Group 341" transform="translate(54.687 33.362)">
      <g id="Group_340" data-name="Group 340" transform="translate(0 0)">
        <circle id="Ellipse_39" data-name="Ellipse 39" cx="4.367" cy="4.367" r="4.367" fill="#b2e8ff"/>
      </g>
    </g>
    <g id="Group_343" data-name="Group 343" transform="translate(54.687 33.362)">
      <g id="Group_342" data-name="Group 342" transform="translate(0 0)">
        <path id="Path_1059" data-name="Path 1059" d="M172.117,95.923a4.367,4.367,0,1,0,.873,8.647V96.011A4.38,4.38,0,0,0,172.117,95.923Z" transform="translate(-167.75 -95.923)" fill="#b2e8ff"/>
      </g>
    </g>
    <g id="Group_345" data-name="Group 345" transform="translate(17.117 65.749)">
      <g id="Group_344" data-name="Group 344" transform="translate(0 0)">
        <circle id="Ellipse_40" data-name="Ellipse 40" cx="2.62" cy="2.62" r="2.62" fill="#94dfff"/>
      </g>
    </g>
    <g id="Group_347" data-name="Group 347" transform="translate(35.69 7.958)">
      <g id="Group_346" data-name="Group 346" transform="translate(0 0)">
        <circle id="Ellipse_41" data-name="Ellipse 41" cx="2.62" cy="2.62" r="2.62" fill="#b2e8ff"/>
      </g>
    </g>
    <g id="Group_349" data-name="Group 349" transform="translate(19.459 8.646)">
      <g id="Group_348" data-name="Group 348" transform="translate(0 0)">
        <path id="Path_1060" data-name="Path 1060" d="M49.048,11.189a.291.291,0,0,0-.521,0L46.75,14.744H48.5l1.165-2.329Z" transform="translate(-46.75 -11.028)" fill="#fce575"/>
      </g>
    </g>
    <g id="Group_351" data-name="Group 351" transform="translate(19.459 44.132)">
      <g id="Group_350" data-name="Group 350">
        <path id="Path_1061" data-name="Path 1061" d="M48.5,135.246v-2.329H46.75v2.329a1.165,1.165,0,0,0,1.165,1.165h1.747A1.165,1.165,0,0,1,48.5,135.246Z" transform="translate(-46.75 -132.917)" fill="#ff4b34"/>
      </g>
    </g>
    <g id="Group_353" data-name="Group 353" transform="translate(9.56 15.079)">
      <g id="Group_352" data-name="Group 352">
        <path id="Path_1062" data-name="Path 1062" d="M16.826,33.125H13.259a.55.55,0,0,0-.509.582v2.329h3.566V33.707A.55.55,0,0,1,16.826,33.125Z" transform="translate(-12.75 -33.125)" fill="#ff4b34"/>
      </g>
    </g>
  </g>
</svg>
