<svg id="content-management" xmlns="http://www.w3.org/2000/svg" width="70.068" height="70.067" viewBox="0 0 70.068 70.067">
  <g id="Group_253" data-name="Group 253" transform="translate(4.353 15.201)">
    <path id="Path_1011" data-name="Path 1011" d="M54.424,150.609l29.712,1.015,9.034-13.862V113.547a2.469,2.469,0,0,0-2.469-2.469H34.918a3.109,3.109,0,0,0-3.109,3.109v27.1l9.034,9.357Z" transform="translate(-31.809 -111.078)" fill="#e8edf2"/>
  </g>
  <g id="Group_256" data-name="Group 256" transform="translate(57.663 41.884)">
    <g id="Group_255" data-name="Group 255">
      <g id="Group_254" data-name="Group 254">
        <path id="Path_1012" data-name="Path 1012" d="M429.409,314.676v-8.617h-8.051Z" transform="translate(-421.358 -306.059)" fill="#c5d3dd"/>
      </g>
    </g>
  </g>
  <g id="Group_257" data-name="Group 257" transform="translate(16.308 15.201)">
    <path id="Path_1013" data-name="Path 1013" d="M119.167,111.079v.971a4.14,4.14,0,0,0,2.664,3.854l2.248.849.034.082-.99,2.19a4.14,4.14,0,0,0,.841,4.609l1.374,1.374a4.119,4.119,0,0,0,4.609.841l2.189-.989.082.034.849,2.248a4.14,4.14,0,0,0,3.854,2.664h1.943a4.14,4.14,0,0,0,3.854-2.664l.849-2.248.082-.034,2.19.99a4.093,4.093,0,0,0,1.7.365h0a4.093,4.093,0,0,0,2.913-1.207l1.374-1.374a4.14,4.14,0,0,0,.841-4.609l-.989-2.189.034-.082,2.248-.849a4.14,4.14,0,0,0,2.664-3.854v-.971H119.167Z" transform="translate(-119.167 -111.079)" fill="#c5d3dd"/>
  </g>
  <g id="Group_258" data-name="Group 258" transform="translate(4.353 32.172)">
    <path id="Path_1014" data-name="Path 1014" d="M76.777,235.871a2.469,2.469,0,0,0-3.609,0L62.49,247.3,51.811,235.871a2.469,2.469,0,0,0-3.609,0L31.809,253.417v5.675a2.469,2.469,0,0,0,2.469,2.469H90.7a2.469,2.469,0,0,0,2.469-2.469v-5.675Z" transform="translate(-31.809 -235.087)" fill="#b3e59f"/>
  </g>
  <g id="Group_259" data-name="Group 259" transform="translate(39.768 41.884)">
    <path id="Path_1015" data-name="Path 1015" d="M316.54,320.351v-5.675l-8.051-8.617H296.938a6.344,6.344,0,0,0-6.344,6.344V322.82h23.477A2.469,2.469,0,0,0,316.54,320.351Z" transform="translate(-290.594 -306.059)" fill="#95d6a4"/>
  </g>
  <g id="Group_260" data-name="Group 260" transform="translate(4.353 15.201)">
    <path id="Path_1016" data-name="Path 1016" d="M35.454,152.053v-9.576l4.407-4.717H35.454V113.547a2.469,2.469,0,0,1,2.469-2.469H34.278a2.469,2.469,0,0,0-2.469,2.469v38.506a2.469,2.469,0,0,0,2.469,2.469h3.645A2.469,2.469,0,0,1,35.454,152.053Z" transform="translate(-31.809 -111.078)" fill="#c5d3dd"/>
  </g>
  <g id="Group_261" data-name="Group 261" transform="translate(4.353 32.172)">
    <path id="Path_1017" data-name="Path 1017" d="M77.039,236.152l-.262-.281a2.469,2.469,0,0,0-3.609,0l-15.412,16.5v-1.223a6.351,6.351,0,0,0-6.344-6.344H43.505l8.324-8.91-.018-.019a2.469,2.469,0,0,0-3.609,0L31.809,253.417v5.675a2.469,2.469,0,0,0,2.469,2.469H57.756v-4.77Z" transform="translate(-31.809 -235.087)" fill="#95d6a4"/>
  </g>
  <g id="Group_262" data-name="Group 262" transform="translate(20.441 0)">
    <path id="Path_1018" data-name="Path 1018" d="M179.162,16.172V14.23a.6.6,0,0,0-.385-.556l-3.518-1.328a.6.6,0,0,1-.362-.395,11.341,11.341,0,0,0-.907-2.188.589.589,0,0,1-.023-.524L175.518,5.8a.6.6,0,0,0-.122-.666l-1.374-1.374a.6.6,0,0,0-.666-.121L169.924,5.2a.589.589,0,0,1-.524-.023,11.338,11.338,0,0,0-2.188-.907.6.6,0,0,1-.395-.362L165.489.385A.6.6,0,0,0,164.932,0h-1.943a.6.6,0,0,0-.556.385L161.1,3.9a.6.6,0,0,1-.395.362,11.338,11.338,0,0,0-2.188.907A.589.589,0,0,1,158,5.2L155.684,4.15l-.871-.082c-.336.02-1.758,1.389-1.758,1.389-.175.175,1.878,3.985,1.878,3.985.076.168-1.125,2.043-1.352,2.809a38.883,38.883,0,0,1-3.829,1.574,9.913,9.913,0,0,0-.385,2.5c0,.247,4.138,1.771,4.138,1.771a27.707,27.707,0,0,1,1.27,2.583c.088.162-1.141,4.863-1.141,4.863-.1.226,2.079.7,2.079.7L158,25.207a.589.589,0,0,1,.524.023q.385.209.787.389a9.873,9.873,0,0,1,1.741.157.6.6,0,0,1,.395.362l1.335,3.265a.6.6,0,0,0,.556.385l1.595.614a.6.6,0,0,0,.556-.385l1.328-3.518a.6.6,0,0,1,.395-.362,11.339,11.339,0,0,0,2.188-.907.589.589,0,0,1,.524-.023l3.433,1.551a.6.6,0,0,0,.666-.121l1.374-1.374a.6.6,0,0,0,.122-.666l-1.551-3.433a.589.589,0,0,1,.023-.524,11.338,11.338,0,0,0,.907-2.188.6.6,0,0,1,.362-.395l3.518-1.328a.594.594,0,0,0,.385-.556Z" transform="translate(-149.368 0)" fill="#ffd064"/>
  </g>
  <g id="Group_263" data-name="Group 263" transform="translate(28.892 9.059)">
    <circle id="Ellipse_35" data-name="Ellipse 35" cx="6.142" cy="6.142" r="6.142" fill="#e8edf2"/>
  </g>
  <g id="Group_264" data-name="Group 264" transform="translate(30.382 0)">
    <path id="Path_1019" data-name="Path 1019" d="M222.921,5.2a.589.589,0,0,0,.524-.023,11.339,11.339,0,0,1,2.188-.907.6.6,0,0,0,.395-.362L227.357.385a.593.593,0,0,1,.416-.366.59.59,0,0,0-.14-.018H225.69a.6.6,0,0,0-.556.385L223.805,3.9a.6.6,0,0,1-.395.362,11.331,11.331,0,0,0-1.4.518Z" transform="translate(-222.01 0)" fill="#ebb044"/>
  </g>
  <g id="Group_265" data-name="Group 265" transform="translate(19.833 3.592)">
    <path id="Path_1020" data-name="Path 1020" d="M150.91,47.916a.6.6,0,0,1-.122-.666l1.551-3.433a.589.589,0,0,0-.023-.524,11.34,11.34,0,0,1-.907-2.188.6.6,0,0,0-.362-.395l-3.518-1.328a.6.6,0,0,1-.385-.556V36.883a.6.6,0,0,1,.385-.556L151.048,35a.6.6,0,0,0,.362-.395,11.339,11.339,0,0,1,.907-2.188.589.589,0,0,0,.023-.524l-1.551-3.433a.6.6,0,0,1,.122-.666l.973-.973-1.156-.522a.6.6,0,0,0-.665.122l-1.374,1.374a.6.6,0,0,0-.122.666l1.551,3.433a.589.589,0,0,1-.023.524,11.339,11.339,0,0,0-.907,2.188.6.6,0,0,1-.362.395l-3.518,1.328a.6.6,0,0,0-.385.556v1.943a.6.6,0,0,0,.385.556l3.518,1.328a.6.6,0,0,1,.362.395,11.339,11.339,0,0,0,.907,2.188.589.589,0,0,1,.023.524l-1.551,3.433a.6.6,0,0,0,.122.666l1.374,1.374a.6.6,0,0,0,.665.121l1.156-.522Z" transform="translate(-144.922 -26.244)" fill="#ebb044"/>
  </g>
  <g id="Group_266" data-name="Group 266" transform="translate(30.382 25.156)">
    <path id="Path_1021" data-name="Path 1021" d="M227.357,188.683l-1.328-3.518a.6.6,0,0,0-.395-.362,11.337,11.337,0,0,1-2.188-.907.589.589,0,0,0-.524-.023l-.911.412a11.353,11.353,0,0,0,1.4.518.6.6,0,0,1,.395.362l1.328,3.518a.6.6,0,0,0,.556.385h1.943a.589.589,0,0,0,.14-.018A.594.594,0,0,1,227.357,188.683Z" transform="translate(-222.01 -183.821)" fill="#ebb044"/>
  </g>
  <g id="Group_267" data-name="Group 267" transform="translate(28.892 9.059)">
    <path id="Path_1022" data-name="Path 1022" d="M213.343,72.34a6.142,6.142,0,0,1,5.031-6.04,6.142,6.142,0,1,0,0,12.08A6.142,6.142,0,0,1,213.343,72.34Z" transform="translate(-211.12 -66.198)" fill="#c5d3dd"/>
  </g>
  <g id="Group_268" data-name="Group 268" transform="translate(43.292 45.409)">
    <path id="Path_1023" data-name="Path 1023" d="M319.168,356.472H340.3a2.82,2.82,0,0,0,2.82-2.82V334.633a2.82,2.82,0,0,0-2.82-2.82H319.168a2.82,2.82,0,0,0-2.82,2.82v19.019A2.82,2.82,0,0,0,319.168,356.472Z" transform="translate(-316.348 -331.813)" fill="#dd636e"/>
  </g>
  <g id="Group_270" data-name="Group 270" transform="translate(0 45.409)">
    <g id="Group_269" data-name="Group 269">
      <path id="Path_1024" data-name="Path 1024" d="M2.82,356.472H23.956a2.82,2.82,0,0,0,2.82-2.82V334.633a2.82,2.82,0,0,0-2.82-2.82H2.82A2.82,2.82,0,0,0,0,334.633v19.019a2.82,2.82,0,0,0,2.82,2.82Z" transform="translate(0 -331.813)" fill="#ffd064"/>
    </g>
  </g>
  <g id="Group_271" data-name="Group 271" transform="translate(43.292 45.409)">
    <path id="Path_1025" data-name="Path 1025" d="M319.461,353.652V334.633a2.82,2.82,0,0,1,2.82-2.82h-3.113a2.82,2.82,0,0,0-2.82,2.82v19.019a2.82,2.82,0,0,0,2.82,2.82h3.113A2.82,2.82,0,0,1,319.461,353.652Z" transform="translate(-316.348 -331.813)" fill="#c63d4f"/>
  </g>
  <g id="Group_273" data-name="Group 273" transform="translate(0 45.409)">
    <g id="Group_272" data-name="Group 272" transform="translate(0)">
      <path id="Path_1026" data-name="Path 1026" d="M3.113,353.652V334.633a2.82,2.82,0,0,1,2.82-2.82H2.82A2.82,2.82,0,0,0,0,334.633v19.019a2.82,2.82,0,0,0,2.82,2.82H5.932a2.82,2.82,0,0,1-2.82-2.82Z" transform="translate(0 -331.813)" fill="#ebb044"/>
    </g>
  </g>
  <g id="Group_274" data-name="Group 274" transform="translate(51.647 51.979)">
    <path id="Path_1027" data-name="Path 1027" d="M378.446,391.249l9.044-5.053a.7.7,0,0,0,0-1.231l-9.044-5.053a.7.7,0,0,0-1.049.615v10.107A.7.7,0,0,0,378.446,391.249Z" transform="translate(-377.397 -379.821)" fill="#e8edf2"/>
  </g>
  <g id="Group_275" data-name="Group 275" transform="translate(4.967 51.593)">
    <path id="Path_1028" data-name="Path 1028" d="M52.078,379.121H37.351a1.057,1.057,0,0,1,0-2.115H52.078a1.057,1.057,0,1,1,0,2.115Z" transform="translate(-36.294 -377.006)" fill="#d68a1d"/>
  </g>
  <g id="Group_276" data-name="Group 276" transform="translate(4.967 56.681)">
    <path id="Path_1029" data-name="Path 1029" d="M52.078,416.3H37.351a1.057,1.057,0,0,1,0-2.115H52.078a1.057,1.057,0,1,1,0,2.115Z" transform="translate(-36.294 -414.181)" fill="#d68a1d"/>
  </g>
  <g id="Group_277" data-name="Group 277" transform="translate(4.967 61.768)">
    <path id="Path_1030" data-name="Path 1030" d="M52.078,453.471H37.351a1.057,1.057,0,1,1,0-2.115H52.078a1.057,1.057,0,1,1,0,2.115Z" transform="translate(-36.294 -451.356)" fill="#d68a1d"/>
  </g>
</svg>
