<svg id="fi-rr-download" xmlns="http://www.w3.org/2000/svg" width="24" height="24" viewBox="0 0 24 24">
  <path id="Path_784" data-name="Path 784" d="M23,16h0a1,1,0,0,0-1,1v4a1,1,0,0,1-1,1H3a1,1,0,0,1-1-1V17a1,1,0,0,0-1-1H1a1,1,0,0,0-1,1v4a3,3,0,0,0,3,3H21a3,3,0,0,0,3-3V17A1,1,0,0,0,23,16Z" fill="#fff"/>
  <path id="Path_785" data-name="Path 785" d="M5.293,13.538l4.586,4.587a3.007,3.007,0,0,0,4.242,0l4.586-4.586a1,1,0,1,0-1.414-1.414L13,16.416V1a1,1,0,0,0-2,0V16.417L6.707,12.124a1,1,0,1,0-1.414,1.414Z" fill="#fff"/>
</svg>
