<svg xmlns="http://www.w3.org/2000/svg" xmlns:xlink="http://www.w3.org/1999/xlink" width="64.561" height="47.521" viewBox="0 0 64.561 47.521">
  <defs>
    <linearGradient id="linear-gradient" x1="0.027" y1="0.408" x2="0.933" y2="0.472" gradientUnits="objectBoundingBox">
      <stop offset="0" stop-color="#b81e55"/>
      <stop offset="1" stop-color="#6c3a84"/>
    </linearGradient>
  </defs>
  <g id="logo" transform="translate(-3047.206 -7335.225)">
    <path id="Path_34" data-name="Path 34" d="M154.959,344.21a.774.774,0,1,0,0,1.527.852.852,0,0,0,.914-.763.843.843,0,0,0-.914-.764" transform="translate(2910.979 7030.894)" fill="#36415b"/>
    <path id="Path_35" data-name="Path 35" d="M173.659,344.21a.774.774,0,1,0,.9.764.839.839,0,0,0-.9-.764" transform="translate(2894.446 7030.894)" fill="#36415b"/>
    <path id="Path_36" data-name="Path 36" d="M255.665,270.441a.84.84,0,0,0,.9-.777.829.829,0,0,0-.9-.763.854.854,0,0,0-.915.763.864.864,0,0,0,.915.777" transform="translate(2821.955 7097.479)" fill="#36415b"/>
    <path id="Path_37" data-name="Path 37" d="M157.4,261.043l3.835-3.69a.614.614,0,0,0-.064-.955.9.9,0,0,0-1.139.055l-5.873,5.643h1.781a1.238,1.238,0,1,1,0,2.44h-2.792a.742.742,0,0,1-.8-.681V257.69a.814.814,0,0,0-1.606,0v6.161a.738.738,0,0,1-.8.681h-1.3a.742.742,0,0,1-.8-.681v-2.443a.813.813,0,0,0-1.6,0v2.44a.752.752,0,0,1-.8.681h-1.314a.741.741,0,0,1-.8-.681v-1.223a2.1,2.1,0,0,0-2.23-1.894h-3.835a1.5,1.5,0,0,0-1.6,1.364v.532a1.5,1.5,0,0,0,1.6,1.364h2.118a.773.773,0,0,1-.788.547h-4.287a.753.753,0,0,1-.8-.681v-2.447a.813.813,0,0,0-1.6,0v2.44a2.245,2.245,0,0,0,2.407,2.045h4.287a2.244,2.244,0,0,0,2.406-2.045v-1.223h-3.737v-.532h3.835a.6.6,0,0,1,.626.532v1.227a2.245,2.245,0,0,0,2.407,2.045h1.315a2.665,2.665,0,0,0,1.6-.518,2.591,2.591,0,0,0,1.6.518h1.3a2.665,2.665,0,0,0,1.6-.518,2.665,2.665,0,0,0,1.6.518h2.792a2.847,2.847,0,0,0,3.049-2.591,2.559,2.559,0,0,0-1.588-2.263" transform="translate(2930.59 7108.69)" fill="#36415b"/>
    <path id="Path_38" data-name="Path 38" d="M380.089,295.15a2.619,2.619,0,1,0,0,5.167,3.377,3.377,0,0,0,1.39-.3c-.176.668-1.2,1.186-2.375,1.186a.69.69,0,1,0,0,1.362,5.214,5.214,0,0,0,2.76-.75,2.906,2.906,0,0,0,.9-.872,1.98,1.98,0,0,0,.348-1.132v-2.085a2.84,2.84,0,0,0-3.033-2.577m0,3.8a1.237,1.237,0,1,1,0-2.44,1.235,1.235,0,1,1,.011,2.442" transform="translate(2713.832 7074.27)" fill="#36415b"/>
    <path id="Path_39" data-name="Path 39" d="M451.464,321.326H438.093a.241.241,0,1,1,0-.481h13.371a.241.241,0,0,1,0,.481" transform="translate(2660.08 7051.552)" fill="#9b2967"/>
    <path id="Path_40" data-name="Path 40" d="M13.73,321.326H.359a.241.241,0,0,1,0-.481H13.73a.241.241,0,1,1,0,.481" transform="translate(3047.072 7051.552)" fill="#9b2967"/>
    <path id="Path_41" data-name="Path 41" d="M4.4,378.626l.594-3.186h.721l-.842,4.024h-.9l-.531-3.345-.532,3.345H2L1.16,375.44h.716l.594,3.186.513-3.186h.9Z" transform="translate(3046.166 7003.282)" fill="#b51f56"/>
    <path id="Path_42" data-name="Path 42" d="M91.168,379.464h-.68l-.31-.947H88.666l-.306.948h-.68l1.35-4.025h.788Zm-2.287-1.622h1.08l-.54-1.672Z" transform="translate(2969.669 7003.282)" fill="#b51f56"/>
    <path id="Path_43" data-name="Path 43" d="M169.47,379.465V375.44h.648v2.009l1.423-2.009h.791l-1.467,1.995,1.557,2.03h-.814l-1.49-2.005v2.005Z" transform="translate(2897.354 7003.282)" fill="#b51f56"/>
    <path id="Path_44" data-name="Path 44" d="M246.62,379.465V375.44h.649v2.009l1.423-2.009h.791l-1.467,1.995,1.557,2.03h-.814l-1.49-2.005v2.005Z" transform="translate(2829.143 7003.282)" fill="#b51f56"/>
    <path id="Path_45" data-name="Path 45" d="M323.78,375.44h2.331v.665h-1.682v.957h1.526v.676h-1.526V378.8h1.691v.664h-2.34Z" transform="translate(2760.922 7003.282)" fill="#b51f56"/>
    <path id="Path_46" data-name="Path 46" d="M398.443,378.8h1.679v.664H397.79V375.44h.653Z" transform="translate(2695.486 7003.282)" fill="#b51f56"/>
    <path id="Path_47" data-name="Path 47" d="M470.62,376.11v3.355h-.64V375.44h1l1.332,3.354V375.44h.635v4.025h-.994Z" transform="translate(2631.659 7003.282)" fill="#b51f56"/>
    <rect id="Rectangle_6" data-name="Rectangle 6" width="0.648" height="4.025" transform="translate(3110.997 7378.722)" fill="#b51f56"/>
    <path id="Path_48" data-name="Path 48" d="M123.569,2a1.564,1.564,0,0,0-1.557,1.717,1.613,1.613,0,0,0,1.622,1.41h1.159l-11.525,18.11-2.01-4.368L118,4.221a1.567,1.567,0,0,0-.5-1.921,1.6,1.6,0,0,0-.96-.3h-2.995V5.126h.6L109.8,14.549a.29.29,0,0,1-.525,0l-4.336-9.423h.6V2h-3a1.6,1.6,0,0,0-.96.3,1.568,1.568,0,0,0-.5,1.921l6.738,14.646-2.021,4.391L94.07,5.126h1.274A1.564,1.564,0,0,0,96.9,3.409,1.613,1.613,0,0,0,95.279,2H91.255a1.629,1.629,0,0,0-1.184.481,1.565,1.565,0,0,0-.188,1.937l14.829,22.927a1.564,1.564,0,0,0,1.313.715,1.424,1.424,0,0,0,.561-.116,1.745,1.745,0,0,0,.906-.9l2.044-4.442,2.058,4.473a1.687,1.687,0,0,0,.734.8,1.517,1.517,0,0,0,.717.18,1.564,1.564,0,0,0,1.318-.724L128.961,4.4a1.565,1.565,0,0,0-.2-1.931A1.63,1.63,0,0,0,127.581,2Z" transform="translate(2967.943 7333.46)" fill="url(#linear-gradient)"/>
    <path id="Path_49" data-name="Path 49" d="M241.548,6.091a.292.292,0,0,0,.285-.152.462.462,0,0,0,.029-.184.073.073,0,0,0-.025-.056l-.533-.516-.836-.811c-.246-.237-.492-.475-.737-.715-.056-.054-.109-.056-.2-.015a5.084,5.084,0,0,0-.473.279,1.8,1.8,0,0,1-.536.225,1.332,1.332,0,0,1-.716-.025.711.711,0,0,1-.434-.336.182.182,0,0,1,.049-.253,5.019,5.019,0,0,1,.78-.547.042.042,0,0,0-.038-.017.849.849,0,0,0-.446.078,1.218,1.218,0,0,0-.265.173.886.886,0,0,1-.549.125c0-.014-.016-.014-.03-.009s-.015.02-.015.031V5.409c0,.013-.009.03.015.036a.052.052,0,0,0,.046,0h.034a.032.032,0,0,0,.034.009,1.994,1.994,0,0,1,.348.063,2.587,2.587,0,0,1,.374.232c.169.116.334.232.507.348.127.082.254.166.383.244a4.466,4.466,0,0,0,.591.336.428.428,0,0,0,.444-.1.182.182,0,0,0,.039-.171c.017-.007.021,0,.028.008a.882.882,0,0,0,.463.134c.159,0,.33-.131.283-.3a.091.091,0,0,1,.049.019.954.954,0,0,0,.324.116.357.357,0,0,0,.255-.044.249.249,0,0,0,.074-.3s.007-.012.015-.012l.036.009a.038.038,0,0,0,.03.007l.045.008a1.106,1.106,0,0,0,.284.037" transform="translate(2837.776 7332.604)" fill="#36415b"/>
    <path id="Path_50" data-name="Path 50" d="M244.525.167c-.232.132-.448.271-.667.412-.2.127-.4.254-.579.394-.075.058-.081.11-.021.178a.649.649,0,0,0,.348.184.98.98,0,0,0,.579-.034,3.382,3.382,0,0,0,.565-.288,3.031,3.031,0,0,1,.381-.207c.116-.049.19-.044.256.017l.174.166.795.768,1,.958.348.335a1.881,1.881,0,0,1,.5-.089V.756c0-.038-.017-.049-.056-.054-.1-.017-.359-.037-.463-.056-.126-.023-.25-.054-.375-.085-.173-.047-.358-.1-.535-.156a2.942,2.942,0,0,1-.495-.232,1.636,1.636,0,0,0-.587-.156A3.648,3.648,0,0,0,245.046,0a1.817,1.817,0,0,0-.184.02.961.961,0,0,0-.334.145m-.73.716a.1.1,0,0,0-.036.007A.1.1,0,0,1,243.8.883m-.08.07A.065.065,0,0,1,243.747.9a.065.065,0,0,0-.029.056c0,.01,0,.021.012.025-.014,0-.012-.015-.012-.025m.173.1h0" transform="translate(2832.151 7335.23)" fill="#36415b"/>
    <path id="Path_51" data-name="Path 51" d="M229.958,2.7V4.2a.13.13,0,0,1-.125.116h-.523V.756h.506a.13.13,0,0,1,.141.132v1.72a.06.06,0,0,1,0,.024v.056a.072.072,0,0,1,0,.016" transform="translate(2844.447 7334.558)" fill="#36415b"/>
    <path id="Path_52" data-name="Path 52" d="M288.7.73V4.289h-.523a.128.128,0,0,1-.124-.116V2.679a.066.066,0,0,1,0-.016V2.607a.058.058,0,0,1,0-.024V.862a.13.13,0,0,1,.14-.136h.506" transform="translate(2792.513 7334.583)" fill="#36415b"/>
  </g>
</svg>
