<svg xmlns="http://www.w3.org/2000/svg" width="91.121" height="83.971" viewBox="0 0 91.121 83.971">
  <g id="online-shop" transform="translate(0 -19.5)">
    <path id="Path_832" data-name="Path 832" d="M116.454,109.5v60.136a7.334,7.334,0,0,1-7.334,7.334H47.334A7.334,7.334,0,0,1,40,169.636V109.5Z" transform="translate(-32.666 -73.499)" fill="#f5f5f5"/>
    <path id="Path_833" data-name="Path 833" d="M51,176.97H47.334A7.334,7.334,0,0,1,40,169.636V109.5h3.667v60.136A7.334,7.334,0,0,0,51,176.97Z" transform="translate(-32.666 -73.499)" fill="#e6e6e6"/>
    <path id="Path_834" data-name="Path 834" d="M116.454,127.5v23.895a8.781,8.781,0,0,1-1.467.123H113.7a8.8,8.8,0,0,1-8.8-8.8,8.8,8.8,0,0,1-17.6,0,8.8,8.8,0,0,1-8.8,8.8h-.183a8.8,8.8,0,0,1-8.8-8.8,8.8,8.8,0,0,1-8.8,8.8h-.367a8.8,8.8,0,0,1-8.8-8.8,8.8,8.8,0,0,1-8.8,8.8H41.467A8.781,8.781,0,0,1,40,151.395V127.5Z" transform="translate(-32.666 -88.199)" fill="#e6e6e6"/>
    <path id="Path_835" data-name="Path 835" d="M20.861,101.333l-1.791,12.295a23.251,23.251,0,0,0-.185,2.922c0,.154,0,.306-.011.458a8.8,8.8,0,0,1-8.789,8.342H8.8a8.8,8.8,0,0,1-8.789-8.342C0,116.857,0,116.7,0,116.551a6.546,6.546,0,0,1,.625-2.794l6.708-12.423L13.5,99.5Z" transform="translate(0 -65.333)" fill="#fd646f"/>
    <path id="Path_836" data-name="Path 836" d="M120.968,101.333v15.217c0,.154,0,.306-.011.458a8.8,8.8,0,0,1-8.789,8.342H111.8a8.8,8.8,0,0,1-8.789-8.342c-.007-.152-.011-.3-.011-.458a23.251,23.251,0,0,1,.185-2.922l1.791-12.295,7.743-1.833Z" transform="translate(-84.116 -65.333)" fill="#ffc682"/>
    <path id="Path_837" data-name="Path 837" d="M218.784,101.333v15.217c0,.154,0,.306-.011.458a8.8,8.8,0,0,1-8.789,8.342H209.8a8.8,8.8,0,0,1-8.789-8.342c-.007-.152-.011-.3-.011-.458V101.333l9.075-1.833Z" transform="translate(-164.148 -65.333)" fill="#fd646f"/>
    <path id="Path_838" data-name="Path 838" d="M315.6,116.551c0,.154,0,.306-.011.458a8.8,8.8,0,0,1-17.579,0c-.007-.152-.011-.3-.011-.458V101.333l8.159-1.833,7.649,1.833,1.626,12.293A25.99,25.99,0,0,1,315.6,116.551Z" transform="translate(-243.364 -65.333)" fill="#ffc682"/>
    <path id="Path_839" data-name="Path 839" d="M404.9,116.551c0,.154,0,.306-.011.458a8.8,8.8,0,0,1-8.789,8.342h-1.283a8.8,8.8,0,0,1-8.789-8.342c-.007-.152-.011-.3-.011-.458a25.99,25.99,0,0,0-.167-2.924l-1.626-12.293,6.655-1.833,6.688,1.833,6.708,12.423a6.469,6.469,0,0,1,.467,1.362A6.576,6.576,0,0,1,404.9,116.551Z" transform="translate(-313.776 -65.333)" fill="#fd646f"/>
    <path id="Path_840" data-name="Path 840" d="M163.542,273.864a1.375,1.375,0,0,0-1.348-1.647H131.2l-.046-.219a5.066,5.066,0,0,0-4.932-4h-2.345a1.375,1.375,0,1,0,0,2.75h2.345a2.3,2.3,0,0,1,2.242,1.817l4.086,19.3a5.067,5.067,0,0,0,3.475,3.775,4.125,4.125,0,1,0,7.692.223h6.157a4.125,4.125,0,1,0,7.777,0h.328a1.375,1.375,0,1,0,0-2.75h-20.5a2.3,2.3,0,0,1-2.242-1.817l-.353-1.666h24.349a1.375,1.375,0,0,0,1.348-1.1l1.445-7.162a1.362,1.362,0,0,0,.07-.346ZM141.2,297.243a1.375,1.375,0,1,1-1.375-1.375A1.377,1.377,0,0,1,141.2,297.243Zm13.934,0a1.375,1.375,0,1,1-1.375-1.375A1.377,1.377,0,0,1,155.135,297.243Zm4.454-17.693h-6.471l.573-4.584h6.823Zm-16.532,7.334-.573-4.584H150l-.573,4.584Zm-.917-7.334-.573-4.584h9.352l-.573,4.584Zm-3.345-4.584.573,4.584h-6.617l-.97-4.584Zm-5.462,7.334h6.378l.573,4.584H134.3Zm18.867,4.584.573-4.584h6.26l-.925,4.584Z" transform="translate(-100.041 -202.939)" fill="#50758d"/>
    <path id="Path_841" data-name="Path 841" d="M.06,195H18.922a8.8,8.8,0,0,1-8.789,8.342H8.849A8.8,8.8,0,0,1,.06,195Z" transform="translate(-0.049 -143.323)" fill="#fc4755"/>
    <path id="Path_842" data-name="Path 842" d="M103.06,195h17.946a8.8,8.8,0,0,1-8.789,8.342h-.367A8.8,8.8,0,0,1,103.06,195Z" transform="translate(-84.165 -143.323)" fill="#ffac5c"/>
    <path id="Path_843" data-name="Path 843" d="M201.06,195h17.762a8.8,8.8,0,0,1-8.789,8.342h-.183A8.8,8.8,0,0,1,201.06,195Z" transform="translate(-164.197 -143.323)" fill="#fc4755"/>
    <path id="Path_844" data-name="Path 844" d="M298.06,195h17.579a8.8,8.8,0,0,1-17.579,0Z" transform="translate(-243.413 -143.323)" fill="#ffac5c"/>
    <path id="Path_845" data-name="Path 845" d="M412.922,195a8.8,8.8,0,0,1-8.789,8.342h-1.283A8.8,8.8,0,0,1,394.06,195Z" transform="translate(-321.812 -143.323)" fill="#fc4755"/>
    <path id="Path_846" data-name="Path 846" d="M40,36V26.834A7.334,7.334,0,0,1,47.334,19.5H109.12a7.334,7.334,0,0,1,7.334,7.334V36Z" transform="translate(-32.666)" fill="#50758d"/>
    <g id="Group_81" data-name="Group 81" transform="translate(10.496 23.579)">
      <path id="Path_847" data-name="Path 847" d="M65.61,48.552a4.123,4.123,0,1,0-6.323-5.292L58.24,44.482a4.123,4.123,0,1,0,6.323,5.292Z" transform="translate(-57.25 -41.75)" fill="#2b597f"/>
      <path id="Path_848" data-name="Path 848" d="M124.86,48.8a4.123,4.123,0,1,0-6.323-5.292l-1.048,1.222a4.123,4.123,0,1,0,6.323,5.292L124.86,48.8Z" transform="translate(-105.637 -41.954)" fill="#2b597f"/>
      <path id="Path_849" data-name="Path 849" d="M183.86,48.8a4.123,4.123,0,1,0-6.323-5.292l-1.048,1.222a4.123,4.123,0,1,0,6.323,5.292L183.86,48.8Z" transform="translate(-153.82 -41.954)" fill="#2b597f"/>
    </g>
    <path id="Path_850" data-name="Path 850" d="M67.375,50A4.125,4.125,0,1,1,71.5,45.875,4.13,4.13,0,0,1,67.375,50Z" transform="translate(-51.654 -18.171)" fill="#fd646f"/>
    <path id="Path_851" data-name="Path 851" d="M126.625,50.25a4.125,4.125,0,1,1,4.125-4.125A4.13,4.13,0,0,1,126.625,50.25Z" transform="translate(-100.041 -18.375)" fill="#ffc682"/>
    <path id="Path_852" data-name="Path 852" d="M185.625,50.25a4.125,4.125,0,1,1,4.125-4.125A4.13,4.13,0,0,1,185.625,50.25Z" transform="translate(-148.223 -18.375)" fill="#93ddb7"/>
    <path id="Path_853" data-name="Path 853" d="M283.245,48.8A4.122,4.122,0,0,0,280.11,42H255.725a4.118,4.118,0,0,0-3.188,1.51l-1.048,1.222a4.122,4.122,0,0,0,3.135,6.8H279.01a4.119,4.119,0,0,0,3.188-1.51Z" transform="translate(-204.573 -18.375)" fill="#2b597f"/>
    <path id="Path_854" data-name="Path 854" d="M285.01,50.25H260.625a4.125,4.125,0,1,1,0-8.25H285.01a4.125,4.125,0,0,1,0,8.25Z" transform="translate(-209.473 -18.375)" fill="#f5f5f5"/>
    <path id="Path_855" data-name="Path 855" d="M126.625,50.25a4.125,4.125,0,1,1,4.125-4.125A4.13,4.13,0,0,1,126.625,50.25Z" transform="translate(-100.041 -18.375)" fill="#ffc682"/>
    <path id="Path_856" data-name="Path 856" d="M185.625,50.25a4.125,4.125,0,1,1,4.125-4.125A4.13,4.13,0,0,1,185.625,50.25Z" transform="translate(-148.223 -18.375)" fill="#93ddb7"/>
  </g>
</svg>
