<svg id="printing" xmlns="http://www.w3.org/2000/svg" width="70" height="70.067" viewBox="0 0 70 70.067">
  <rect id="Rectangle_37" data-name="Rectangle 37" width="62" height="49" transform="translate(4 16.067)" fill="#444"/>
  <rect id="Rectangle_38" data-name="Rectangle 38" width="31" height="49" transform="translate(35 16.067)" fill="#292929"/>
  <rect id="Rectangle_39" data-name="Rectangle 39" width="54" height="49" transform="translate(8 16.067)" fill="#25d9f8"/>
  <rect id="Rectangle_40" data-name="Rectangle 40" width="27" height="49" transform="translate(35 16.067)" fill="#00c0f1"/>
  <path id="Path_887" data-name="Path 887" d="M69.954,65.1v8.2H0V65.1L4.878,61H67.9Z" transform="translate(0 -52.666)" fill="#5a5a5a"/>
  <path id="Path_888" data-name="Path 888" d="M261.494,178.3a6.14,6.14,0,0,1-6.148,6.148h-8.2a2.029,2.029,0,0,0-2.049,2.049v12.3H241v-12.3a6.209,6.209,0,0,1,6.148-6.148h8.2a2.049,2.049,0,0,0,0-4.1h-8.2A6.209,6.209,0,0,1,241,170.1V166h4.1v4.1a2.03,2.03,0,0,0,2.049,2.049h8.2A6.14,6.14,0,0,1,261.494,178.3Z" transform="translate(-208.072 -143.32)" fill="#fed2a4"/>
  <path id="Path_889" data-name="Path 889" d="M274.445,178.3a6.14,6.14,0,0,1-6.148,6.148h-8.2a2.029,2.029,0,0,0-2.049,2.049v12.3H256V181.945a6.016,6.016,0,0,1,4.1-1.6h8.2a2.049,2.049,0,1,0,0-4.1h-8.2a6.018,6.018,0,0,1-4.1-1.6V166h2.049v4.1a2.03,2.03,0,0,0,2.049,2.049h8.2A6.14,6.14,0,0,1,274.445,178.3Z" transform="translate(-221.023 -143.32)" fill="#f6a96c"/>
  <path id="Path_890" data-name="Path 890" d="M290.977,65.1v8.2H256V61h32.928Z" transform="translate(-221.023 -52.666)" fill="#444"/>
  <path id="Path_891" data-name="Path 891" d="M69.954,0V12.433H0V0H24.73l9.346,4.1.9-.328L45.224,0Z" fill="#929298"/>
  <path id="Path_892" data-name="Path 892" d="M290.977,0V12.433H256V3.771L266.247,0Z" transform="translate(-221.023)" fill="#7c8388"/>
  <path id="Path_893" data-name="Path 893" d="M201.494,0V2.049a38.556,38.556,0,0,1-1.517,10.384,36.44,36.44,0,0,1-2.378,6.189l-.2.451V24.73H185.1V19.073l-.2-.451a36.447,36.447,0,0,1-2.377-6.189A38.567,38.567,0,0,1,181,2.049V0Z" transform="translate(-156.27)" fill="#ede9e8"/>
  <path id="Path_894" data-name="Path 894" d="M262.148,24.73H256V0h10.247V2.049a38.556,38.556,0,0,1-1.517,10.384,36.439,36.439,0,0,1-2.378,6.189l-.2.451V24.73Z" transform="translate(-221.023)" fill="#d2c5c2"/>
  <path id="Path_895" data-name="Path 895" d="M171.494,365.1V361H159.2v4.1H151v12.3h28.692V365.1Z" transform="translate(-130.369 -311.677)" fill="#ede9e8"/>
  <path id="Path_896" data-name="Path 896" d="M270.346,365.1v12.3H256V361h6.148v4.1Z" transform="translate(-221.023 -311.677)" fill="#d2c5c2"/>
  <rect id="Rectangle_41" data-name="Rectangle 41" width="70" height="8" transform="translate(0 62.067)" fill="#5a5a5a"/>
  <rect id="Rectangle_42" data-name="Rectangle 42" width="35" height="8" transform="translate(35 62.067)" fill="#444"/>
</svg>
