<svg id="seo" xmlns="http://www.w3.org/2000/svg" width="70.067" height="70.067" viewBox="0 0 70.067 70.067">
  <g id="Group_238" data-name="Group 238" transform="translate(30.664)">
    <path id="Path_970" data-name="Path 970" d="M227.943,18.4a12.627,12.627,0,0,0,1.022,2.482l-1.9,3.651,2.92,2.92,3.5-1.9a12.636,12.636,0,0,0,2.482,1.022l1.168,3.943h4.089l1.168-3.943a12.627,12.627,0,0,0,2.482-1.022l3.651,1.9,2.92-2.92-1.9-3.5a12.634,12.634,0,0,0,1.022-2.482l3.943-1.168V13.142l-4.234-1.168a12.628,12.628,0,0,0-1.022-2.482l2.044-3.651-2.92-2.92-3.5,1.9A12.628,12.628,0,0,0,242.4,3.8L241.084,0H237l-1.168,3.943a12.627,12.627,0,0,0-2.482,1.022l-3.5-1.9-2.92,2.92,1.9,3.5a12.636,12.636,0,0,0-1.022,2.482L224,13.142V17.23Zm4.235-3.212a6.863,6.863,0,1,1,6.863,6.863A6.95,6.95,0,0,1,232.177,15.186Z" transform="translate(-224)" fill="#66c6b9"/>
    <circle id="Ellipse_33" data-name="Ellipse 33" cx="3.358" cy="3.358" r="3.358" transform="translate(11.828 11.828)" fill="#66c6b9"/>
  </g>
  <g id="Group_239" data-name="Group 239" transform="translate(0 18.982)">
    <path id="Path_971" data-name="Path 971" d="M4.527,161.59,0,165.241,2.19,170.5l5.695-.73a24.88,24.88,0,0,0,2.774,2.774l-.584,5.841,5.4,2.19,3.5-4.527a16.488,16.488,0,0,0,3.8,0l3.651,4.527,5.257-2.19-.73-5.695a24.879,24.879,0,0,0,2.774-2.774l5.841.584,2.19-5.4-4.527-3.5a16.487,16.487,0,0,0,0-3.8l4.527-3.651-2.19-5.257-5.695.73a24.88,24.88,0,0,0-2.774-2.774L31.686,141l-5.4-2.19-3.358,4.235a16.485,16.485,0,0,0-3.8,0l-3.8-4.381-5.257,2.19.73,5.695a17.668,17.668,0,0,0-2.92,2.774l-5.841-.584L0,154.143l4.527,3.5A17.79,17.79,0,0,0,4.527,161.59Zm7.447,1.752a9.722,9.722,0,1,1,12.7,5.257A9.823,9.823,0,0,1,11.974,163.343Z" transform="translate(0 -138.665)" fill="#f3705a"/>
    <circle id="Ellipse_34" data-name="Ellipse 34" cx="4.819" cy="4.819" r="4.819" transform="translate(16.208 16.062)" fill="#f3705a"/>
  </g>
  <path id="Path_972" data-name="Path 972" d="M157.538,157.538a20.031,20.031,0,1,0,28.328,0A20.184,20.184,0,0,0,157.538,157.538Zm24.093,24.093a14.042,14.042,0,1,1,0-19.859A13.926,13.926,0,0,1,181.631,181.631Z" transform="translate(-130.962 -130.962)" fill="#415a6b"/>
  <path id="Path_973" data-name="Path 973" d="M381.364,374.838a1.588,1.588,0,0,1,0,2.19l-5.4,5.4a1.549,1.549,0,0,1-2.19-2.19l5.4-5.4A1.585,1.585,0,0,1,381.364,374.838Z" transform="translate(-322.226 -323.147)" fill="#344a5e"/>
  <path id="Path_974" data-name="Path 974" d="M407.281,407.281h0a5.271,5.271,0,0,1-8.031-.584l-6.717-8.761,5.4-5.4,8.761,6.717A5.285,5.285,0,0,1,407.281,407.281Z" transform="translate(-338.798 -338.798)" fill="#ffd15c"/>
</svg>
