<svg id="stock-market" xmlns="http://www.w3.org/2000/svg" width="72.845" height="72.845" viewBox="0 0 72.845 72.845">
  <path id="Path_975" data-name="Path 975" d="M391,331h12.8v23.618H391Z" transform="translate(-335.371 -283.907)" fill="#fd697f"/>
  <path id="Path_976" data-name="Path 976" d="M436,331h6.4v23.618H436Z" transform="translate(-373.968 -283.907)" fill="#e6455d"/>
  <path id="Path_977" data-name="Path 977" d="M277.4,331H271v23.618h12.8V331Z" transform="translate(-232.444 -283.907)" fill="#8adb53"/>
  <path id="Path_978" data-name="Path 978" d="M316,331h6.4v23.618H316Z" transform="translate(-271.041 -283.907)" fill="#4fc16e"/>
  <path id="Path_979" data-name="Path 979" d="M157.4,354.929l-6.4,3.2V372.4h12.8V351.728Z" transform="translate(-129.516 -301.686)" fill="#fd697f"/>
  <path id="Path_980" data-name="Path 980" d="M202.4,351.728l-6.4,3.2V372.4h6.4Z" transform="translate(-168.114 -301.686)" fill="#e6455d"/>
  <g id="Group_240" data-name="Group 240" transform="translate(8.679 17.215)">
    <path id="Path_981" data-name="Path 981" d="M61,121h4.268v6.4H61Z" transform="translate(-61 -121)" fill="#60474f"/>
  </g>
  <g id="Group_241" data-name="Group 241" transform="translate(8.679 36.422)">
    <path id="Path_982" data-name="Path 982" d="M61,256h4.268v6.4H61Z" transform="translate(-61 -256)" fill="#60474f"/>
  </g>
  <path id="Path_983" data-name="Path 983" d="M76,121h2.134v6.4H76Z" transform="translate(-65.187 -103.785)" fill="#3f303a"/>
  <path id="Path_984" data-name="Path 984" d="M76,256h2.134v6.4H76Z" transform="translate(-65.187 -219.578)" fill="#3f303a"/>
  <path id="Path_985" data-name="Path 985" d="M31,391H43.8v15.081H31Z" transform="translate(-26.589 -335.371)" fill="#8adb53"/>
  <path id="Path_986" data-name="Path 986" d="M76,391h6.4v15.081H76Z" transform="translate(-65.187 -335.371)" fill="#4fc16e"/>
  <g id="Group_242" data-name="Group 242" transform="translate(0 27.777)">
    <path id="Path_987" data-name="Path 987" d="M75.68,195.238l-1.717,3.906,3.459,1.52-10.708,5.353H49.137l-16.569,8.536H16v4.268H33.577l16.569-8.536H67.723l11.607-5.8-.859,3.677,4.156.971,2.3-9.831Z" transform="translate(-13.724 -195.238)" fill="#fd697f"/>
    <path id="Path_988" data-name="Path 988" d="M285.184,204.483l-.859,3.677,4.156.971,2.3-9.831-9.245-4.062-1.717,3.906,3.459,1.52-10.708,5.353H256v4.268h17.577Z" transform="translate(-219.578 -195.238)" fill="#e6455d"/>
    <path id="Path_989" data-name="Path 989" d="M36.422,482H0v4.268H72.845V482Z" transform="translate(0 -441.201)" fill="#60474f"/>
    <path id="Path_990" data-name="Path 990" d="M256,482h36.422v4.268H256Z" transform="translate(-219.578 -441.201)" fill="#3f303a"/>
  </g>
  <g id="Group_243" data-name="Group 243" transform="translate(4.411 21.484)">
    <path id="Path_991" data-name="Path 991" d="M31,151v17.073H43.8V151Z" transform="translate(-31 -151)" fill="#8adb53"/>
  </g>
  <path id="Path_992" data-name="Path 992" d="M76,151h6.4v17.073H76Z" transform="translate(-65.187 -129.516)" fill="#4fc16e"/>
  <g id="Group_244" data-name="Group 244" transform="translate(25.752 8.679)">
    <path id="Path_993" data-name="Path 993" d="M181,61h4.268v6.4H181Z" transform="translate(-181 -61)" fill="#60474f"/>
  </g>
  <g id="Group_245" data-name="Group 245" transform="translate(25.752 27.886)">
    <path id="Path_994" data-name="Path 994" d="M181,196h4.268v6.4H181Z" transform="translate(-181 -196)" fill="#60474f"/>
  </g>
  <path id="Path_995" data-name="Path 995" d="M196,61h2.134v6.4H196Z" transform="translate(-168.114 -52.321)" fill="#3f303a"/>
  <path id="Path_996" data-name="Path 996" d="M196,196h2.134v6.4H196Z" transform="translate(-168.114 -168.114)" fill="#3f303a"/>
  <g id="Group_246" data-name="Group 246" transform="translate(21.484 12.947)">
    <path id="Path_997" data-name="Path 997" d="M151,91v17.073h12.8V91Z" transform="translate(-151 -91)" fill="#fd697f"/>
  </g>
  <path id="Path_998" data-name="Path 998" d="M196,91h6.4v17.073H196Z" transform="translate(-168.114 -78.053)" fill="#e6455d"/>
  <g id="Group_247" data-name="Group 247" transform="translate(59.898)">
    <path id="Path_999" data-name="Path 999" d="M421,0h4.268V6.4H421Z" transform="translate(-421)" fill="#60474f"/>
  </g>
  <g id="Group_248" data-name="Group 248" transform="translate(59.898 19.349)">
    <path id="Path_1000" data-name="Path 1000" d="M421,136h4.268v6.4H421Z" transform="translate(-421 -136)" fill="#60474f"/>
  </g>
  <path id="Path_1001" data-name="Path 1001" d="M436,0h2.134V6.4H436Z" transform="translate(-373.968)" fill="#3f303a"/>
  <path id="Path_1002" data-name="Path 1002" d="M436,136h2.134v6.4H436Z" transform="translate(-373.968 -116.651)" fill="#3f303a"/>
  <g id="Group_249" data-name="Group 249" transform="translate(55.629 4.268)">
    <path id="Path_1003" data-name="Path 1003" d="M391,30V47.215h12.8V30Z" transform="translate(-391 -30)" fill="#fd697f"/>
  </g>
  <path id="Path_1004" data-name="Path 1004" d="M436,30h6.4V47.215H436Z" transform="translate(-373.968 -25.732)" fill="#e6455d"/>
  <g id="Group_250" data-name="Group 250" transform="translate(42.825 4.411)">
    <path id="Path_1005" data-name="Path 1005" d="M301,31h4.268v6.4H301Z" transform="translate(-301 -31)" fill="#60474f"/>
  </g>
  <g id="Group_251" data-name="Group 251" transform="translate(42.825 23.618)">
    <path id="Path_1006" data-name="Path 1006" d="M301,166h4.268v6.4H301Z" transform="translate(-301 -166)" fill="#60474f"/>
  </g>
  <path id="Path_1007" data-name="Path 1007" d="M316,31h2.134v6.4H316Z" transform="translate(-271.041 -26.589)" fill="#3f303a"/>
  <path id="Path_1008" data-name="Path 1008" d="M316,166h2.134v6.4H316Z" transform="translate(-271.041 -142.382)" fill="#3f303a"/>
  <g id="Group_252" data-name="Group 252" transform="translate(38.556 8.679)">
    <path id="Path_1009" data-name="Path 1009" d="M271,61V78.073h12.8V61Z" transform="translate(-271 -61)" fill="#8adb53"/>
  </g>
  <path id="Path_1010" data-name="Path 1010" d="M316,61h6.4V78.073H316Z" transform="translate(-271.041 -52.321)" fill="#4fc16e"/>
</svg>
