<svg xmlns="http://www.w3.org/2000/svg" width="57.498" height="70.067" viewBox="0 0 57.498 70.067">
  <g id="vlogger" transform="translate(-45.25)">
    <path id="Path_940" data-name="Path 940" d="M77.816,144.818H74.184a1.815,1.815,0,0,0-1.815,1.815v3.258h7.262v-3.258A1.815,1.815,0,0,0,77.816,144.818Z" transform="translate(-23.353 -124.705)" fill="#fe93bb"/>
    <path id="Path_941" data-name="Path 941" d="M53.494,175.61l1.838,18.875-1.838,18.069H47.065a1.815,1.815,0,0,1-1.815-1.814v-1.326l1-1.042-1-1.042V180.664l.627-.954-.627-1.129v-1.156a1.815,1.815,0,0,1,1.815-1.815Z" transform="translate(0 -151.22)" fill="#e2dee2"/>
    <g id="Group_221" data-name="Group 221" transform="translate(45.25 27.36)">
      <g id="Group_219" data-name="Group 219" transform="translate(0 28.749)">
        <path id="Path_942" data-name="Path 942" d="M45.25,404h9.468v2.083H45.25Z" transform="translate(-45.25 -404)" fill="#d8d0d8"/>
      </g>
      <g id="Group_220" data-name="Group 220">
        <path id="Path_943" data-name="Path 943" d="M45.25,197h9.468v2.083H45.25Z" transform="translate(-45.25 -197)" fill="#d8d0d8"/>
      </g>
    </g>
    <path id="Path_944" data-name="Path 944" d="M227.25,464.968v-5.776a.278.278,0,0,1,.278-.278h5a.278.278,0,0,1,.278.278v5.776a.278.278,0,0,1-.278.278h-5A.278.278,0,0,1,227.25,464.968Z" transform="translate(-156.723 -395.179)" fill="#5e5d5d"/>
    <path id="Path_945" data-name="Path 945" d="M201.207,437.643h-12.5l-2.408-.214a1.389,1.389,0,0,1-1.389-1.389l.059-2.7,8.309-1.316,9.317,1.316v2.917A1.389,1.389,0,0,1,201.207,437.643Z" transform="translate(-120.263 -372.02)" fill="#6b6b6b"/>
    <path id="Path_946" data-name="Path 946" d="M186.417,435.243v4.305h-2.778a1.389,1.389,0,0,1-1.389-1.389v-2.917l2.261-1.009Z" transform="translate(-117.973 -373.926)" fill="#5e5d5d"/>
    <path id="Path_947" data-name="Path 947" d="M194.578,7.5H159.7a1.449,1.449,0,0,0-1.449,1.449V32.8h37.777V8.949A1.449,1.449,0,0,0,194.578,7.5Z" transform="translate(-97.306 -6.458)" fill="#99e6fc"/>
    <g id="Group_222" data-name="Group 222" transform="translate(59.902 0)">
      <path id="Path_948" data-name="Path 948" d="M189.568,29.444H151.792A1.042,1.042,0,0,1,150.75,28.4V2.429A2.432,2.432,0,0,1,153.179,0h35a2.432,2.432,0,0,1,2.429,2.429V28.4A1.042,1.042,0,0,1,189.568,29.444ZM152.833,27.36h35.693V2.429a.346.346,0,0,0-.346-.346h-35a.346.346,0,0,0-.346.346Z" transform="translate(-150.75 0)" fill="#6b6b6b"/>
    </g>
    <g id="Group_227" data-name="Group 227" transform="translate(64.069 4.167)">
      <g id="Group_223" data-name="Group 223" transform="translate(25.277)">
        <path id="Path_949" data-name="Path 949" d="M367.958,36.25a1.042,1.042,0,0,1-1.042-1.042V32.083h-3.125a1.042,1.042,0,0,1,0-2.083h4.167A1.042,1.042,0,0,1,369,31.042v4.167A1.042,1.042,0,0,1,367.958,36.25Z" transform="translate(-362.75 -30)" fill="#62dbfb"/>
      </g>
      <g id="Group_224" data-name="Group 224" transform="translate(25.346 10.694)">
        <path id="Path_950" data-name="Path 950" d="M368.389,113.25h-4.1a1.042,1.042,0,0,1,0-2.083h3.055v-3.125a1.042,1.042,0,1,1,2.083,0v4.167A1.042,1.042,0,0,1,368.389,113.25Z" transform="translate(-363.25 -107)" fill="#62dbfb"/>
      </g>
      <g id="Group_225" data-name="Group 225" transform="translate(0 10.694)">
        <path id="Path_951" data-name="Path 951" d="M185.958,113.25h-4.167a1.042,1.042,0,0,1-1.042-1.042v-4.167a1.042,1.042,0,1,1,2.083,0v3.125h3.125a1.042,1.042,0,1,1,0,2.083Z" transform="translate(-180.75 -107)" fill="#62dbfb"/>
      </g>
      <g id="Group_226" data-name="Group 226">
        <path id="Path_952" data-name="Path 952" d="M181.792,36.25a1.042,1.042,0,0,1-1.042-1.042V31.042A1.042,1.042,0,0,1,181.792,30h4.1a1.042,1.042,0,0,1,0,2.083h-3.055v3.125A1.042,1.042,0,0,1,181.792,36.25Z" transform="translate(-180.75 -30)" fill="#62dbfb"/>
      </g>
    </g>
    <path id="Path_953" data-name="Path 953" d="M277.429,52.682a3.689,3.689,0,0,1-.134.987s-.681.833-1.01,1.228a2.938,2.938,0,0,1-2.538,1.117,3.094,3.094,0,0,1-3.307-3.333c0-1.619.969-2.577,2.12-3.487a3.685,3.685,0,0,1,4.869,3.487Z" transform="translate(-193.915 -42.195)" fill="#bc7c63"/>
    <path id="Path_954" data-name="Path 954" d="M274.972,54.877a3.683,3.683,0,1,1-4.736-4.47,3.616,3.616,0,0,0-.134.986,3.675,3.675,0,0,0,4.871,3.483Z" transform="translate(-191.59 -43.406)" fill="#aa6a51"/>
    <path id="Path_955" data-name="Path 955" d="M261.852,135.613h-7.538c-.047,0-.093,0-.139,0,0,0-1.925,1.287-1.925,2.774v3.467h12.38l-.6-1.649.6-1.546v-.272A2.778,2.778,0,0,0,261.852,135.613Z" transform="translate(-178.251 -116.778)" fill="#b4e555"/>
    <path id="Path_956" data-name="Path 956" d="M260.2,138.683v3.194H247.11v-3.467a2.778,2.778,0,0,1,2.639-2.774v2.074a.972.972,0,0,0,.972.972Z" transform="translate(-173.825 -116.799)" fill="#a3db4b"/>
    <g id="Group_228" data-name="Group 228" transform="translate(89.348 8.333)">
      <path id="Path_957" data-name="Path 957" d="M363.807,62.083a1.042,1.042,0,1,1,0-2.083h0a1.042,1.042,0,0,1,0,2.083Z" transform="translate(-362.765 -60)" fill="#fe93bb"/>
    </g>
    <g id="Group_229" data-name="Group 229" transform="translate(68.305 8.333)">
      <path id="Path_958" data-name="Path 958" d="M214.93,62.083h-2.639a1.042,1.042,0,0,1,0-2.083h2.639a1.042,1.042,0,0,1,0,2.083Z" transform="translate(-211.25 -60)" fill="#62dbfb"/>
    </g>
    <path id="Path_959" data-name="Path 959" d="M159.621,177.425v32.35l-.448.27a1.815,1.815,0,0,1-1.815,1.814l-46.062-.792.059-34.769,1.791-.689h44.661A1.815,1.815,0,0,1,159.621,177.425Z" transform="translate(-56.872 -151.22)" fill="#f9f7f8"/>
    <path id="Path_960" data-name="Path 960" d="M153.864,209.776v.964a1.815,1.815,0,0,1-1.815,1.814H104.61V175.61h2.778V208.8a.972.972,0,0,0,.972.972Z" transform="translate(-51.116 -151.22)" fill="#eae8ea"/>
    <path id="Path_961" data-name="Path 961" d="M171.851,219.805a14.306,14.306,0,0,0-23.325-11.1,24.157,24.157,0,0,0-2.133,2.444c-1.849,2.41-2.335,5.5-2.335,8.77,0,7.9,5.616,13.735,13.516,13.735a13.569,13.569,0,0,0,8.714-2.717,29.325,29.325,0,0,0,2.36-2.108A14.246,14.246,0,0,0,171.851,219.805Z" transform="translate(-85.085 -176.959)" fill="#6b6b6b"/>
    <path id="Path_962" data-name="Path 962" d="M163.578,248.682a14.3,14.3,0,1,1-20.122-20.122,14.3,14.3,0,0,0,20.122,20.122Z" transform="translate(-80.015 -196.816)" fill="#5e5d5d"/>
    <path id="Path_963" data-name="Path 963" d="M193.336,245.639a10.14,10.14,0,0,0-16.03-8.252s-1.2,1.17-1.757,1.841c-1.458,1.756-1.7,3.965-1.7,6.426,0,5.6,3.751,9.327,9.35,9.327a9.328,9.328,0,0,0,4.931-.922,29.88,29.88,0,0,0,3.321-2.529A10.094,10.094,0,0,0,193.336,245.639Z" transform="translate(-110.737 -202.793)" fill="#99e6fc"/>
    <path id="Path_964" data-name="Path 964" d="M186.561,263.224a10.139,10.139,0,1,1-14.144-14.144,10.14,10.14,0,0,0,14.144,14.144Z" transform="translate(-105.848 -214.487)" fill="#62dbfb"/>
    <circle id="Ellipse_32" data-name="Ellipse 32" cx="2.778" cy="2.778" r="2.778" transform="translate(69.683 40.068)" fill="#62dbfb"/>
    <g id="Group_236" data-name="Group 236" transform="translate(89.246 55.257)">
      <g id="Group_231" data-name="Group 231" transform="translate(8.333)">
        <g id="Group_230" data-name="Group 230">
          <path id="Path_965" data-name="Path 965" d="M423.074,399.943a1.042,1.042,0,1,1,0-2.083h0a1.042,1.042,0,1,1,0,2.083Z" transform="translate(-422.032 -397.86)" fill="#eae8ea"/>
        </g>
      </g>
      <g id="Group_233" data-name="Group 233" transform="translate(4.167)">
        <g id="Group_232" data-name="Group 232">
          <path id="Path_966" data-name="Path 966" d="M393.074,399.943a1.042,1.042,0,1,1,0-2.083h0a1.042,1.042,0,1,1,0,2.083Z" transform="translate(-392.032 -397.86)" fill="#eae8ea"/>
        </g>
      </g>
      <g id="Group_235" data-name="Group 235">
        <g id="Group_234" data-name="Group 234">
          <path id="Path_967" data-name="Path 967" d="M363.074,399.943a1.042,1.042,0,0,1,0-2.083h0a1.042,1.042,0,1,1,0,2.083Z" transform="translate(-362.032 -397.86)" fill="#eae8ea"/>
        </g>
      </g>
    </g>
    <path id="Path_968" data-name="Path 968" d="M353.013,209.785h9.168a.763.763,0,0,0,.763-.763v-2.64a.763.763,0,0,0-.763-.763h-9.168a.763.763,0,0,0-.763.763v2.64A.763.763,0,0,0,353.013,209.785Z" transform="translate(-264.362 -177.061)" fill="#fe93bb"/>
    <g id="Group_237" data-name="Group 237" transform="translate(89.554 35.832)">
      <path id="Path_969" data-name="Path 969" d="M372.236,260.083h-6.944a1.042,1.042,0,0,1,0-2.083h6.944a1.042,1.042,0,0,1,0,2.083Z" transform="translate(-364.25 -258)" fill="#eae8ea"/>
    </g>
  </g>
</svg>
