<svg xmlns="http://www.w3.org/2000/svg" width="71.47" height="71.191" viewBox="0 0 71.47 71.191">
  <g id="web-development" transform="translate(0 -1)">
    <path id="Path_857" data-name="Path 857" d="M71.47,7.282A6.282,6.282,0,0,0,65.188,1H6.282A6.282,6.282,0,0,0,0,7.282V19.845l1.4,1.4H70.074l1.4-1.4Z" fill="#0052c2"/>
    <path id="Path_858" data-name="Path 858" d="M291.735,7.282V19.845l-1.4,1.4H256V1h29.453A6.282,6.282,0,0,1,291.735,7.282Z" transform="translate(-220.265)" fill="#003481"/>
    <path id="Path_859" data-name="Path 859" d="M345.657,61H333.094a2.094,2.094,0,0,0,0,4.188h12.563a2.094,2.094,0,1,0,0-4.188Z" transform="translate(-284.796 -51.625)" fill="#0052c2"/>
    <circle id="Ellipse_20" data-name="Ellipse 20" cx="2.5" cy="2.5" r="2.5" transform="translate(25 9)" fill="#f03800"/>
    <ellipse id="Ellipse_21" data-name="Ellipse 21" cx="2" cy="2.5" rx="2" ry="2.5" transform="translate(17 9)" fill="#fdbf00"/>
    <circle id="Ellipse_22" data-name="Ellipse 22" cx="2.5" cy="2.5" r="2.5" transform="translate(8 9)" fill="#37d742"/>
    <path id="Path_860" data-name="Path 860" d="M0,136v46.065a6.289,6.289,0,0,0,6.282,6.282H65.188a6.289,6.289,0,0,0,6.282-6.282V136Z" transform="translate(0 -116.155)" fill="#e0f4ff"/>
    <path id="Path_861" data-name="Path 861" d="M291.735,136v46.065a6.289,6.289,0,0,1-6.282,6.282H256V136Z" transform="translate(-220.265 -116.155)" fill="#b8e0f5"/>
    <path id="Path_862" data-name="Path 862" d="M211.478,196.166a2.094,2.094,0,0,0-2.749,1.1L196.166,226.58a2.094,2.094,0,1,0,3.849,1.65l12.563-29.314A2.094,2.094,0,0,0,211.478,196.166Z" transform="translate(-168.637 -167.777)" fill="#ff641a"/>
    <path id="Path_863" data-name="Path 863" d="M264.207,198.915,256,218.064V207.43l4.357-10.165a2.094,2.094,0,0,1,3.85,1.65Z" transform="translate(-220.265 -167.776)" fill="#f03800"/>
    <path id="Path_864" data-name="Path 864" d="M89.874,258.21l-8.425-6.74,8.425-6.74a2.094,2.094,0,1,0-2.616-3.27l-10.469,8.375a2.1,2.1,0,0,0,0,3.27l10.469,8.375a2.094,2.094,0,1,0,2.616-3.27Z" transform="translate(-65.395 -206.499)" fill="#ff641a"/>
    <path id="Path_865" data-name="Path 865" d="M344.87,249.833,334.4,241.458a2.094,2.094,0,1,0-2.616,3.27l8.425,6.741-8.425,6.74a2.094,2.094,0,1,0,2.616,3.27L344.87,253.1A2.1,2.1,0,0,0,344.87,249.833Z" transform="translate(-284.795 -206.497)" fill="#f03800"/>
  </g>
</svg>
